<?xml version="1.0" standalone="no"?><!DOCTYPE svg PUBLIC "-//W3C//DTD SVG 1.1//EN" "http://www.w3.org/Graphics/SVG/1.1/DTD/svg11.dtd"><svg t="1663826557736" class="icon" viewBox="0 0 1024 1024" version="1.1" xmlns="http://www.w3.org/2000/svg" p-id="13326" xmlns:xlink="http://www.w3.org/1999/xlink" width="200" height="200"><path d="M776.09083963 554.40482995c-49.38283993-44.55190993-109.50107984-78.36841989-176.59732976-96.08182987 49.38283993-40.25774994 78.36841989-103.05983985 78.3684199-170.15608977 0-122.92032983-100.91275986-223.83308969-223.83308969-223.83308967S230.1957504 165.24658049 230.1957504 288.16691031c0 78.36841989 40.25774994 147.61174979 103.05983986 187.86949974-163.17807977 52.60345992-245.84065965 216.31830969-259.25990964 377.34930946 0 20.39725998 15.56632998 38.11066995 35.96358995 38.11066996 17.71340998 0 31.13265995-13.41924998 33.27973995-31.13265997 15.56632998-183.57533974 132.04541981-347.8269595 353.1946595-347.82695951 91.78766987 0 174.45024975 35.96358995 237.25233966 91.78766988 13.41924998 11.27216999 31.13265995 11.27216999 44.55190994 0 13.41924998-13.95601998 13.41924998-36.50035994-2.14707999-49.91960992zM456.17592008 131.96684054c86.95673988 0 156.73683978 69.2433299 156.73683978 156.73683977s-69.2433299 156.73683978-156.73683978 156.73683979-156.73683978-69.7800999-156.73683977-157.27360979 69.2433299-156.20006978 156.73683977-156.20006977z" p-id="13327"></path><path d="M601.64058988 646.19249981c17.71340998 0 33.27973996 15.56632998 33.27973995 33.27973996V860.9004995c0 17.71340998-15.56632998 33.27973996-33.27973995 33.27973996s-33.27973996-15.56632998-33.27973996-33.27973996v-181.42825973c-0.53676999-17.71340998 15.02955998-33.27973996 33.27973996-33.27973996z m156.20006977 67.0962499c17.71340998 0 33.27973996 15.56632998 33.27973996 33.27973995V860.9004995c0 17.71340998-15.56632998 33.27973996-33.27973996 33.27973996-17.71340998 0-33.27973996-15.56632998-33.27973996-33.27973996v-114.33200984c0-17.71340998 15.56632998-33.27973996 33.27973996-33.27973995z m156.73683979-134.19249981c17.71340998 0 33.27973996 15.56632998 33.27973995 33.27973995V860.9004995c0 17.71340998-15.56632998 33.27973996-33.27973995 33.27973996s-33.27973996-15.56632998-33.27973996-33.27973996v-248.52450965c0-17.71340998 15.56632998-33.27973996 33.27973996-33.27973995z" p-id="13328"></path></svg>