<?xml version="1.0" standalone="no"?><!DOCTYPE svg PUBLIC "-//W3C//DTD SVG 1.1//EN" "http://www.w3.org/Graphics/SVG/1.1/DTD/svg11.dtd"><svg t="1663827066128" class="icon" viewBox="0 0 1024 1024" version="1.1" xmlns="http://www.w3.org/2000/svg" p-id="26082" xmlns:xlink="http://www.w3.org/1999/xlink" width="200" height="200"><path d="M512 85.333333c235.648 0 426.666667 191.018667 426.666667 426.666667s-191.018667 426.666667-426.666667 426.666667S85.333333 747.648 85.333333 512 276.352 85.333333 512 85.333333z m0 85.333334a341.333333 341.333333 0 1 0 0 682.666666 341.333333 341.333333 0 0 0 0-682.666666z m91.648 149.973333a42.666667 42.666667 0 1 1 73.941333 42.666667L640.981333 426.666667 682.666667 426.666667a42.666667 42.666667 0 0 1 0 85.333333l-128-0.042667v42.666667L682.666667 554.666667a42.666667 42.666667 0 0 1 0 85.333333l-128-0.042667V704a42.666667 42.666667 0 0 1-85.333334 0v-64.042667L341.333333 640a42.666667 42.666667 0 0 1 0-85.333333l128-0.042667v-42.666667L341.333333 512a42.666667 42.666667 0 0 1 0-85.333333l42.88-0.042667-36.565333-63.317333a42.666667 42.666667 0 0 1 73.941333-42.666667L482.730667 426.666667h59.733333z" p-id="26083"></path></svg>