<?xml version="1.0" standalone="no"?><!DOCTYPE svg PUBLIC "-//W3C//DTD SVG 1.1//EN" "http://www.w3.org/Graphics/SVG/1.1/DTD/svg11.dtd"><svg t="1663742372682" class="icon" viewBox="0 0 1024 1024" version="1.1" xmlns="http://www.w3.org/2000/svg" p-id="2079" xmlns:xlink="http://www.w3.org/1999/xlink" width="200" height="200"><path d="M176.23936 768H896.23936a128 128 0 0 0 85.12-34.56A128 128 0 0 0 1024.23936 640V128a128 128 0 0 0-128-128H128.23936a128 128 0 0 0-128 128v704a17.92 17.92 0 0 0 0 5.76 85.76 85.76 0 0 0 0 12.8A176 176 0 0 0 176.23936 1024h800a48 48 0 0 0 48-48 48.64 48.64 0 0 0-23.04-40.96 47.36 47.36 0 0 0-24.96-7.04H176.23936a80 80 0 1 1 0-159.36zM93.67936 609.28V156.16a64 64 0 0 1 64-64h709.12a64 64 0 0 1 64 64v453.12a64 64 0 0 1-64 64H157.67936a64 64 0 0 1-64-64z" p-id="2080"></path><path d="M512.23936 295.04a64 64 0 1 1-64 64 64 64 0 0 1 64-64m0-96a160 160 0 1 0 160 160A159.36 159.36 0 0 0 512.23936 199.04z" p-id="2081"></path><path d="M720.23936 727.04a48.64 48.64 0 0 1-48-48 160 160 0 0 0-320 0 48 48 0 0 1-96 0 256 256 0 0 1 512 0 48.64 48.64 0 0 1-48 48z" p-id="2082"></path></svg>