<?xml version="1.0" standalone="no"?><!DOCTYPE svg PUBLIC "-//W3C//DTD SVG 1.1//EN" "http://www.w3.org/Graphics/SVG/1.1/DTD/svg11.dtd"><svg t="1663224166008" class="icon" viewBox="0 0 1024 1024" version="1.1" xmlns="http://www.w3.org/2000/svg" p-id="21606" xmlns:xlink="http://www.w3.org/1999/xlink" width="200" height="200"><path d="M322.56 913.92v-318.179556a51.2 51.2 0 0 1 51.2-51.2h275.911111a51.2 51.2 0 0 1 51.2 51.2v318.179556h121.571556V559.616a51.2 51.2 0 0 1 102.4 0v405.504a51.2 51.2 0 0 1-51.2 51.2H149.617778a51.2 51.2 0 0 1-51.2-51.2V562.005333a51.2 51.2 0 1 1 102.4 0v351.914667h121.742222z m102.4 0h173.511111v-266.979556H424.96v266.979556zM94.663111 533.845333a51.2 51.2 0 1 1-71.111111-73.671111L477.354667 22.186667a51.2 51.2 0 0 1 71.111111 0.056889l152.405333 147.626666a51.2 51.2 0 0 1-71.281778 73.500445L512.796444 130.275556l-418.133333 403.569777z m637.610667-190.976a51.2 51.2 0 0 1 71.281778-73.557333l197.063111 190.919111a51.2 51.2 0 0 1-71.281778 73.557333l-197.063111-190.919111z" p-id="21607"></path></svg>