<?xml version="1.0" standalone="no"?><!DOCTYPE svg PUBLIC "-//W3C//DTD SVG 1.1//EN" "http://www.w3.org/Graphics/SVG/1.1/DTD/svg11.dtd"><svg t="1663839114069" class="icon" viewBox="0 0 1024 1024" version="1.1" xmlns="http://www.w3.org/2000/svg" p-id="18883" xmlns:xlink="http://www.w3.org/1999/xlink" width="200" height="200"><path d="M597.333333 0v85.333333h426.666667v85.333334h-85.333333v597.333333a85.333333 85.333333 0 0 1-85.333334 85.333333H768l73.898667 128L768 1024l-98.56-170.666667H354.474667L256 1024l-73.898667-42.666667 73.813334-128H170.666667a85.333333 85.333333 0 0 1-85.333334-85.333333V170.666667H0V85.333333h426.666667V0h170.666666z m256 170.666667H170.666667v597.333333h682.666666V170.666667zM597.333333 512v85.333333H256V512h341.333333z m170.666667-170.666667v85.333334H256V341.333333h512z" p-id="18884"></path></svg>