<?xml version="1.0" standalone="no"?><!DOCTYPE svg PUBLIC "-//W3C//DTD SVG 1.1//EN" "http://www.w3.org/Graphics/SVG/1.1/DTD/svg11.dtd"><svg t="1663213130340" class="icon" viewBox="0 0 1024 1024" version="1.1" xmlns="http://www.w3.org/2000/svg" p-id="1457" xmlns:xlink="http://www.w3.org/1999/xlink" width="200" height="200"><path d="M653.312 78.848a51.2 51.2 0 0 0-39.936 5.632L241.664 307.2H102.4a102.4 102.4 0 0 0-102.4 102.4v204.8a102.4 102.4 0 0 0 102.4 102.4h139.264L614.4 940.032a51.2 51.2 0 0 0 26.112 7.168 51.2 51.2 0 0 0 14.848 0 51.2 51.2 0 0 0 31.232-27.648c0-5.12 55.808-124.416 55.808-414.208s-51.2-389.12-57.344-399.872a51.2 51.2 0 0 0-31.744-26.624zM102.4 409.6h102.4v204.8H102.4z m507.904 409.6L307.2 636.416V387.584L611.84 204.8a1270.272 1270.272 0 0 1 28.16 298.496 1392.64 1392.64 0 0 1-29.696 315.904zM972.8 460.8h-102.4a51.2 51.2 0 0 0 0 102.4h102.4a51.2 51.2 0 0 0 0-102.4zM972.8 697.856l-88.576-51.2a51.2 51.2 0 0 0-51.2 88.576l88.576 51.2a51.2 51.2 0 0 0 51.2-88.576zM882.176 377.344l88.576-51.2a51.2 51.2 0 0 0-51.2-88.576l-88.576 51.2a51.2 51.2 0 0 0 51.2 88.576z" p-id="1458"></path></svg>