<?xml version="1.0" standalone="no"?><!DOCTYPE svg PUBLIC "-//W3C//DTD SVG 1.1//EN" "http://www.w3.org/Graphics/SVG/1.1/DTD/svg11.dtd"><svg t="1663226277893" class="icon" viewBox="0 0 1040 1024" version="1.1" xmlns="http://www.w3.org/2000/svg" p-id="893" xmlns:xlink="http://www.w3.org/1999/xlink" width="203.125" height="200"><path d="M131.364571 736.028444a48.761905 48.761905 0 0 1-59.814603 34.328381 81.269841 81.269841 0 0 1-49.249524-118.897777l78.360381-136.549588-78.360381-136.565841a81.269841 81.269841 0 0 1 49.249524-118.897778l151.974603-41.155047 41.155048-151.974604a81.269841 81.269841 0 0 1 118.881524-49.249523L520.126984 95.443302l136.565841-78.376635a81.269841 81.269841 0 0 1 118.881524 49.249523l41.155048 151.974604 151.974603 41.155047a81.269841 81.269841 0 0 1 49.249524 118.897778l-78.360381 136.565841 78.360381 136.549588a81.269841 81.269841 0 0 1-49.249524 118.897777l-151.974603 41.155048-41.155048 151.974603a81.269841 81.269841 0 0 1-118.881524 49.249524L520.126984 934.359365l-136.565841 78.376635a81.269841 81.269841 0 0 1-118.653968-48.436825l-51.687619-178.679873a48.761905 48.761905 0 0 1 93.687873-27.111619l46.08 159.33765 126.683428-72.704a81.269841 81.269841 0 0 1 80.912254 0l126.374603 72.508953 38.083048-140.629334a81.269841 81.269841 0 0 1 57.213968-57.213968l140.629333-38.083047-72.525206-126.374604a81.269841 81.269841 0 0 1 0-80.896l72.525206-126.374603-140.645587-38.083047a81.269841 81.269841 0 0 1-57.213968-57.213969L686.973968 112.152381l-126.374603 72.508952a81.269841 81.269841 0 0 1-80.912254 0L353.296254 112.152381l-38.083048 140.629333a81.269841 81.269841 0 0 1-57.213968 57.213969l-140.629333 38.083047 72.525206 126.374603a81.269841 81.269841 0 0 1 0 80.896l-74.719492 130.194286a48.761905 48.761905 0 0 1 16.188952 50.484825z m318.935366-85.300825a48.761905 48.761905 0 1 1-71.647493-66.153651l195.047619-211.301587a48.761905 48.761905 0 1 1 71.647493 66.153651l-195.047619 211.301587zM390.095238 455.111111a65.015873 65.015873 0 1 1 0-130.031746 65.015873 65.015873 0 0 1 0 130.031746z m260.063492 260.063492a65.015873 65.015873 0 1 1 0-130.031746 65.015873 65.015873 0 0 1 0 130.031746z" p-id="894"></path></svg>